<svg width="1000" height="1000" viewBox="0 0 1000 1000" fill="none" xmlns="http://www.w3.org/2000/svg">
<path d="M775.4 484.8H275.4V514.8H775.4V484.8Z" fill="black"/>
<path d="M267 666.5C267 833.2 104.9 776.2 104.9 776.2C116.8 794 131.3 813.4 148.9 833.1C163.1 849 176.7 862.1 188.3 872.5C208 890.1 249.1 918.3 267 930.2V69.8C249.2 81.7 208 109.4 188.3 127.1C172 141.7 158.9 155.4 148.9 166.5C131.3 186.2 116.8 205.5 104.9 223.4C104.9 223.4 267 166.4 267 333.1" fill="black"/>
<path d="M267 666.5C267 833.2 104.9 776.2 104.9 776.2C116.8 794 131.3 813.4 148.9 833.1C163.1 849 176.7 862.1 188.3 872.5C208 890.1 249.1 918.3 267 930.2V69.8C249.2 81.7 208 109.4 188.3 127.1C172 141.7 158.9 155.4 148.9 166.5C131.3 186.2 116.8 205.5 104.9 223.4C104.9 223.4 267 166.4 267 333.1" stroke="black" stroke-width="60" stroke-linecap="round" stroke-linejoin="round"/>
<path d="M771.6 666.5C771.6 833.2 938.3 776.2 938.3 776.2C921.8 801 905.4 820.9 891.6 836.1C878.3 850.8 865.6 862.9 854.9 872.5C833.9 891.3 787.8 919.4 771.6 930.2V69.8C789.4 81.7 835.2 109.4 854.9 127.1C871.1 141.6 884.2 155.2 894.3 166.5C911.9 186.2 926.4 205.5 938.3 223.4C938.3 223.4 771.6 166.4 771.6 333.1" fill="black"/>
<path d="M771.6 666.5C771.6 833.2 938.3 776.2 938.3 776.2C921.8 801 905.4 820.9 891.6 836.1C878.3 850.8 865.6 862.9 854.9 872.5C833.9 891.3 787.8 919.4 771.6 930.2V69.8C789.4 81.7 835.2 109.4 854.9 127.1C871.1 141.6 884.2 155.2 894.3 166.5C911.9 186.2 926.4 205.5 938.3 223.4C938.3 223.4 771.6 166.4 771.6 333.1" stroke="black" stroke-width="60" stroke-linecap="round" stroke-linejoin="round"/>
<path d="M396.6 749.8C455.14 701.59 495.62 656.64 521.6 624.8C573.33 561.4 594.45 517 646.6 499.8C685.76 486.89 723.81 495.45 748.74 504.01C737.1 535.39 715.72 580.52 676.1 624.8C653.17 650.43 604.02 698.26 525.8 726.94C473.06 746.28 426.52 749.8 396.59 749.8H396.6Z" fill="#829671"/>
<path d="M21.6 499.8C103.56 518.28 168.51 510.42 209.1 499.8C293.88 477.62 328.47 433.23 396.6 437.3C451.59 440.59 494.49 473.42 521.6 499.8C512.26 512.25 424.72 624.8 271.6 624.8C256.03 624.8 113.48 622.3 21.6 499.8Z" fill="#829671"/>
<path d="M147.6 161.62C161.3 179.72 184.1 204.6 218.82 221.37C261.59 242.02 287.57 233.53 314.49 252.65C334.43 266.8 356.25 297.06 357.72 369.66C346.61 373.1 279.81 392.59 218.9 354.6C158.9 317.18 129.23 239.32 147.6 161.63V161.62Z" fill="#829671"/>
</svg>
